<svg enable-background="new 0 0 800 800" version="1.1" viewBox="0 0 800 800" xmlns="http://www.w3.org/2000/svg">
 <style type="text/css">.st0{fill:#F9F9F9;}
	.st1{fill:#FFFFFF;}</style>
 <polygon class="st0" transform="matrix(-1 0 0 1 781.42 0)" points="354.8 258 75.5 258.2 75.6 560.4 354.9 560.3 354.9 726.4 725.5 408.5 354.8 73.6" fill="#f9f9f9"/>
 <polyline transform="matrix(-1 0 0 1 781.42 0)" points="663.2 408.5 396.3 177.1 396.3 299.6 117 299.7 117.1 518.9 396.4 518.7 396.5 640.1 663.2 408.5"/>
 <polyline class="st1" transform="matrix(-1 0 0 1 781.42 0)" points="646.6 408.5 406.7 201 406.7 309 127.4 309.1 127.5 508.4 406.8 508.3 406.9 616.3 646.6 408.5" fill="#fff"/>
</svg>
