<?xml version="1.0" encoding="UTF-8" standalone="no"?>
<!-- Generator: Adobe Illustrator 19.0.0, SVG Export Plug-In . SVG Version: 6.00 Build 0)  -->

<svg
   version="1.1"
   id="Layer_1"
   x="0px"
   y="0px"
   viewBox="0 0 800 800"
   style="enable-background:new 0 0 800 800;"
   xml:space="preserve"
   xmlns="http://www.w3.org/2000/svg"
>

<g
   id="XBOX"
   style="display:none;">
	<circle
   id="Button_4"
   style="display:inline;fill:#D04242;stroke:#000000;stroke-miterlimit:10;"
   cx="575"
   cy="550"
   r="150" />
	<circle
   id="Button_3"
   style="display:inline;fill:#3CFF4E;stroke:#000000;stroke-miterlimit:10;"
   cx="225"
   cy="600"
   r="150" />
	<circle
   id="Button_2"
   style="display:inline;fill:#ECDB33;stroke:#000000;stroke-miterlimit:10;"
   cx="575"
   cy="200"
   r="150" />
	<circle
   id="Button_1"
   style="display:inline;fill:#40CCD0;stroke:#000000;stroke-miterlimit:10;"
   cx="225"
   cy="250"
   r="150" />
</g>

<path

   style="fill:#00c400;fill-opacity:1"
   id="path378"

   d="M 230.22656,463.41741 231.08549,-58.793621 682.90404,203.05575 Z"
   transform="matrix(0.6295694,0,0,1,112.56046,197.68811)" /><path
   style="fill:#00c400;fill-opacity:1;stroke-width:0.554378"
   d="m 258.23361,400.32079 c 0.12433,-142.82355 0.3321,-259.8476 0.4617,-260.05346 0.2429,-0.38582 283.13369,259.70895 283.15077,260.3338 0.009,0.32444 -282.372,258.54068 -283.38195,259.13165 -0.31525,0.18448 -0.38661,-80.10817 -0.23052,-259.41199 z"
   id="path514" /><path
   style="fill:#00c400;fill-opacity:1;stroke-width:0.554378"
   d="m 258.23331,400.18886 c 0.12319,-142.77128 0.33063,-259.75355 0.46098,-259.96059 0.13035,-0.20704 27.52308,24.73574 60.87275,55.42841 33.34967,30.69266 97.00478,89.27318 141.45581,130.17893 44.45104,40.90575 80.82311,74.54274 80.82682,74.74888 0.004,0.20614 -4.0016,4.02226 -8.90069,8.48025 -4.8991,4.458 -68.64809,62.69108 -141.66443,129.40686 -73.01635,66.71578 -132.8736,121.30141 -133.01611,121.30141 -0.14251,0 -0.15832,-116.81287 -0.0351,-259.58415 z"
   id="path516" /></svg>
